<svg xmlns="http://www.w3.org/2000/svg" width="161" height="37" viewBox="0 0 161 37"><path fill="#446323" d="M1.443 36.88L.364.526h8.9L8.4 17.246c-.107 3.236-.484 8.091-.646 10.95h.107c.702-2.859 2.05-7.714 3.128-10.95L16.546.526h8.845L10.181 36.88H1.443zM44.86 11.583c0 8.09-2.48 17.259-7.335 22.115-2.373 2.373-5.124 3.613-8.575 3.613-8.306 0-9.547-8.037-9.547-12.028 0-7.605 2.481-16.774 7.551-21.682C29.166 1.443 31.917.094 35.423.094c8.304 0 9.437 7.282 9.437 11.489m-12.459-3.56c-3.074 3.075-4.801 12.89-4.801 18.285 0 1.564.27 4.046 2.535 4.046.593 0 1.24-.323 1.78-.863 3.291-3.29 4.746-14.887 4.746-18.771 0-1.402-.323-3.667-2.265-3.667-.701 0-1.349.323-1.995.97"/><path fill="#446323" d="M50.952 8.078h-6.257L46.151.526h20.443l-1.457 7.552h-6.202L53.379 36.88h-7.983zM78.942 21.346h-7.605l-1.725 8.468h8.737l-1.402 7.066H60.335L67.292.526h16.021l-1.404 7.012h-7.874l-1.51 7.12h7.713zM90.915 1.065c1.996-.431 4.746-.701 7.551-.701 3.183 0 6.58.431 8.899 2.697 1.618 1.51 2.266 3.614 2.266 5.879 0 4.423-3.236 7.982-6.851 9.115v.216c3.506 1.187 4.748 4.585 4.748 7.659s-1.674 5.987-3.884 7.768c-2.752 2.211-6.527 3.344-12.245 3.344-3.828 0-5.5-.162-7.28-.433l6.796-35.544zm1.834 29.775c.431.053.916.053 1.401.053 3.237 0 5.502-2.372 5.502-5.771 0-2.751-1.294-4.423-3.829-4.423h-1.079L92.749 30.84zm3.128-15.967h.754c3.615 0 5.342-2.157 5.342-5.178 0-1.51-.594-3.56-2.859-3.56-.539 0-1.188 0-1.673.162l-1.564 8.576zM125.863 21.346h-7.605l-1.726 8.468h8.738l-1.403 7.066h-16.611L114.213.526h16.018l-1.402 7.012h-7.874l-1.51 7.12h7.712zM148.785 36.88l1.564-11.435c.377-2.913 1.132-7.282 2.104-12.46h-.217c-1.672 5.178-3.451 9.655-4.423 11.921l-4.639 11.219h-5.824l-.324-11.219c-.054-2.212-.271-6.743-.108-11.921h-.108a254.608 254.608 0 0 1-2.642 12.46l-2.75 11.435h-6.797l9.33-36.354h8.415l.377 15.642c.055 2.643.162 6.904.055 9.384h.107c.594-2.48 2.104-6.688 3.128-9.384L152.075.526h8.306l-4.692 36.354h-6.904z"/></svg>